<?xml version="1.0" standalone="no"?>
<!DOCTYPE svg PUBLIC "-//W3C//DTD SVG 20010904//EN"
 "http://www.w3.org/TR/2001/REC-SVG-20010904/DTD/svg10.dtd">
<svg version="1.0" xmlns="http://www.w3.org/2000/svg"
 width="562.000000pt" height="745.000000pt" viewBox="0 0 562.000000 745.000000"
 preserveAspectRatio="xMidYMid meet">

<g transform="translate(0.000000,745.000000) scale(0.100000,-0.100000)"
fill="#000000" stroke="none">
<path d="M923 7349 c-75 -13 -207 -63 -284 -109 -205 -122 -354 -323 -409
-551 -20 -83 -20 -113 -20 -2811 0 -2987 -4 -2791 60 -2956 95 -248 303 -437
576 -525 l69 -22 1875 -3 c2062 -3 1944 -6 2104 58 132 52 219 112 324 225
115 123 182 254 216 418 14 68 16 291 16 2054 0 1324 -4 1999 -11 2043 -14 91
-59 216 -110 307 -39 71 -112 147 -839 876 -437 439 -822 818 -856 843 -77 55
-182 107 -276 136 l-73 23 -1155 1 c-635 1 -1178 -2 -1207 -7z m3015 -1671
l723 -718 -678 0 -678 0 -60 29 c-68 32 -132 95 -167 161 l-23 45 -3 679 -2
680 82 -79 c46 -44 408 -403 806 -797z m-1773 -1203 c351 -62 575 -210 695
-459 72 -149 84 -210 85 -401 0 -98 -6 -183 -14 -220 -75 -334 -292 -561 -644
-674 -158 -50 -266 -65 -494 -65 l-203 -1 0 -519 0 -520 -32 -33 -32 -33 -181
0 -181 0 -27 28 -27 28 0 1415 0 1416 78 11 c268 40 444 52 692 47 118 -2 231
-10 285 -20z m1910 -756 c50 -6 128 -22 175 -36 111 -31 250 -100 249 -122 0
-9 -24 -81 -52 -160 l-52 -144 -42 -15 c-40 -13 -46 -12 -75 6 -93 56 -298
101 -397 86 -147 -22 -230 -98 -231 -213 0 -116 74 -179 329 -281 419 -167
580 -351 581 -666 0 -180 -56 -321 -178 -441 -154 -154 -419 -237 -702 -219
-191 12 -377 61 -506 132 l-62 34 53 162 53 162 40 15 c40 15 42 14 129 -26
157 -73 273 -99 412 -90 184 11 290 95 291 232 0 148 -79 221 -355 328 -157
60 -270 124 -351 197 -213 193 -260 442 -133 699 131 266 452 406 824 360z"/>
<path d="M1628 4083 l-38 -4 0 -499 0 -500 28 -7 c15 -5 106 -8 202 -7 144 1
188 4 251 22 262 71 399 247 399 512 0 243 -120 399 -357 466 -43 13 -108 17
-253 19 -107 2 -212 1 -232 -2z"/>
</g>
</svg>
