<?xml version="1.0" standalone="no"?>
<!DOCTYPE svg PUBLIC "-//W3C//DTD SVG 20010904//EN"
 "http://www.w3.org/TR/2001/REC-SVG-20010904/DTD/svg10.dtd">
<svg version="1.0" xmlns="http://www.w3.org/2000/svg"
 width="1200.000000pt" height="1434.000000pt" viewBox="0 0 1200.000000 1434.000000"
 preserveAspectRatio="xMidYMid meet">

<g transform="translate(0.000000,1434.000000) scale(0.100000,-0.100000)"
fill="#000000" stroke="none">
<path d="M1324 14115 c-12 -9 -42 -14 -80 -15 -42 0 -65 -5 -74 -15 -7 -8 -28
-15 -47 -15 -21 0 -36 -6 -39 -15 -4 -8 -18 -15 -33 -15 -33 0 -137 -54 -145
-75 -3 -8 -15 -15 -27 -15 -24 0 -259 -226 -285 -275 -26 -49 -48 -88 -72
-128 -12 -21 -22 -49 -22 -63 0 -13 -7 -27 -15 -30 -9 -4 -15 -19 -15 -36 0
-16 -9 -41 -20 -55 -13 -17 -18 -33 -14 -49 4 -15 0 -34 -10 -49 -14 -22 -16
-94 -16 -673 0 -583 2 -651 16 -663 11 -9 14 -23 11 -45 -4 -24 0 -37 14 -50
11 -10 19 -30 19 -49 0 -18 7 -38 15 -45 8 -7 15 -20 15 -30 0 -10 7 -23 15
-30 8 -7 15 -18 15 -24 0 -23 38 -91 64 -115 14 -14 26 -31 26 -38 0 -20 146
-169 183 -187 18 -8 42 -25 52 -36 11 -12 33 -28 50 -36 16 -7 37 -17 45 -22
38 -22 61 -32 74 -32 7 0 19 -7 26 -15 7 -8 27 -15 45 -15 18 0 38 -7 45 -15
7 -8 25 -15 41 -15 15 0 40 -6 56 -12 22 -10 276 -14 1113 -18 l1085 -5 5
-630 c5 -585 6 -632 23 -656 12 -18 16 -36 11 -53 -4 -17 0 -35 10 -51 9 -13
16 -36 16 -50 0 -14 7 -28 15 -31 8 -4 15 -14 15 -23 0 -10 7 -26 15 -37 8
-10 15 -26 15 -35 0 -9 7 -22 15 -29 8 -7 15 -21 15 -32 0 -10 7 -21 15 -24 8
-4 15 -14 15 -23 0 -10 14 -30 30 -46 17 -16 30 -39 30 -52 0 -13 12 -31 30
-45 17 -12 30 -29 30 -38 0 -9 13 -30 30 -46 16 -16 30 -36 30 -45 0 -9 13
-29 30 -45 16 -16 30 -36 30 -44 0 -8 14 -30 30 -49 17 -18 30 -39 30 -45 0
-6 11 -23 25 -38 14 -15 25 -32 25 -37 0 -6 14 -26 30 -44 17 -19 30 -41 30
-49 0 -8 13 -27 30 -43 17 -16 30 -36 30 -45 0 -9 14 -29 30 -45 17 -16 30
-36 30 -45 0 -9 14 -29 30 -45 17 -16 30 -36 30 -45 0 -9 14 -29 30 -45 17
-16 30 -36 30 -45 0 -9 14 -29 30 -45 17 -16 30 -36 30 -45 0 -9 14 -29 30
-45 17 -16 30 -36 30 -46 0 -9 14 -29 30 -42 17 -14 30 -34 30 -45 0 -10 14
-31 30 -45 17 -15 30 -35 30 -45 0 -10 14 -31 30 -47 17 -16 30 -37 30 -46 0
-10 11 -26 24 -37 14 -10 28 -30 31 -45 4 -14 18 -35 31 -48 13 -12 24 -28 24
-35 0 -7 14 -29 30 -47 17 -19 30 -41 30 -49 0 -8 14 -27 30 -43 17 -16 30
-36 30 -45 0 -9 14 -29 30 -45 17 -16 30 -35 30 -43 0 -8 14 -30 30 -49 17
-18 30 -39 30 -46 0 -7 14 -25 30 -41 17 -16 30 -36 30 -44 0 -7 9 -26 21 -40
11 -15 39 -56 61 -92 23 -36 44 -67 48 -70 3 -3 17 -23 30 -45 13 -22 30 -46
37 -53 7 -7 13 -19 13 -26 0 -7 11 -25 24 -39 14 -15 27 -34 30 -44 3 -10 17
-30 31 -45 14 -15 25 -32 25 -37 0 -6 14 -26 30 -44 17 -19 30 -41 30 -49 0
-8 14 -27 30 -43 17 -16 30 -36 30 -45 0 -9 14 -29 30 -45 17 -16 30 -36 30
-45 0 -21 181 -200 202 -200 9 0 21 -6 25 -13 11 -18 71 -47 98 -47 13 0 28
-7 35 -15 8 -10 31 -15 70 -15 32 0 71 -7 86 -15 37 -19 65 -19 111 0 19 8 59
15 88 15 35 0 57 5 65 15 7 8 23 15 37 15 28 0 74 22 92 44 8 9 20 16 29 16
36 0 232 196 232 232 0 8 14 27 30 43 16 16 30 36 30 45 0 9 14 29 30 45 17
16 30 36 30 45 0 9 14 29 30 45 17 16 30 36 30 45 0 9 11 27 25 40 14 13 25
29 25 36 0 7 13 29 30 47 16 19 30 39 30 44 0 6 13 26 30 44 16 19 30 39 30
45 0 6 13 27 30 45 16 19 30 41 30 49 0 8 14 28 30 44 17 16 30 37 30 47 0 9
6 19 13 22 7 2 21 22 32 43 11 22 25 44 31 49 6 6 20 26 30 45 11 19 24 39 30
45 6 5 20 26 30 45 11 19 24 39 30 45 15 14 94 133 94 142 1 5 14 24 30 43 17
19 30 39 30 45 1 5 14 26 30 45 17 19 30 38 30 43 0 5 13 26 30 47 17 21 30
41 30 45 0 4 13 24 30 45 16 21 30 41 30 45 0 4 14 24 30 45 17 21 30 41 30
45 0 4 14 24 30 45 17 21 30 40 30 43 0 6 68 107 85 127 8 8 20 26 27 40 26
48 147 227 163 240 8 7 15 18 15 26 0 7 14 29 30 47 17 19 30 41 30 48 1 8 14
30 30 49 17 19 30 39 30 45 0 5 14 23 30 39 17 16 30 36 30 45 0 9 14 29 30
45 17 16 30 37 30 46 0 9 14 29 30 45 17 16 30 36 30 44 0 9 14 29 30 45 17
16 30 35 30 42 0 7 14 28 30 46 17 18 30 40 30 50 0 10 4 18 8 18 5 0 21 21
36 48 59 104 66 119 66 141 0 10 9 30 21 45 11 14 19 32 16 39 -2 6 4 27 15
44 14 23 18 42 13 62 -4 17 0 44 10 67 13 32 15 113 15 627 0 431 2 593 11
603 10 12 175 14 1043 14 891 1 1034 3 1050 15 12 9 42 15 77 15 38 0 61 5 69
15 7 8 25 14 41 13 16 -1 37 6 48 16 11 10 26 16 34 13 15 -5 111 36 122 52 3
6 14 11 24 11 10 0 28 11 41 25 13 14 30 25 38 25 24 0 222 201 244 248 12 24
27 46 35 49 7 3 13 13 13 23 0 10 7 23 15 30 8 7 15 23 15 35 0 13 7 25 15 29
8 3 15 18 15 33 0 15 7 37 15 47 8 11 15 39 15 62 0 23 6 47 14 53 9 8 16 43
19 104 3 51 9 117 14 147 8 56 -1 822 -13 1027 -4 78 -10 116 -20 124 -8 6
-14 30 -14 54 0 26 -6 48 -15 55 -8 7 -15 23 -15 35 0 13 -7 25 -15 29 -8 3
-15 16 -15 30 0 13 -7 26 -15 30 -8 3 -15 17 -15 31 0 14 -4 25 -9 25 -5 0
-14 12 -19 28 -15 39 -267 292 -291 292 -11 0 -25 8 -30 19 -6 10 -25 26 -43
35 -18 9 -40 20 -48 25 -58 31 -85 41 -110 41 -15 0 -33 7 -40 15 -7 8 -29 15
-49 15 -21 0 -46 7 -57 15 -11 8 -42 15 -74 15 -30 0 -66 7 -80 15 -38 22
-9367 22 -9396 0z"/>
<path d="M5954 5795 c-12 -9 -42 -14 -80 -15 -42 0 -65 -5 -74 -15 -7 -8 -29
-15 -49 -15 -21 0 -46 -7 -57 -15 -10 -8 -29 -15 -40 -15 -12 0 -27 -7 -34
-15 -7 -8 -20 -15 -30 -15 -10 0 -20 -7 -24 -15 -3 -8 -18 -15 -33 -15 -15 0
-37 -7 -47 -15 -11 -8 -30 -15 -42 -15 -12 0 -27 -7 -34 -15 -7 -8 -20 -15
-30 -15 -10 0 -23 -7 -30 -15 -7 -8 -16 -12 -21 -9 -5 2 -16 -4 -26 -16 -10
-11 -28 -20 -41 -20 -13 0 -47 -11 -75 -24 -29 -13 -62 -27 -74 -31 -13 -3
-23 -11 -23 -16 0 -5 -8 -9 -18 -9 -10 0 -27 -7 -38 -15 -10 -8 -27 -15 -37
-15 -9 0 -43 -13 -74 -30 -31 -16 -62 -30 -70 -30 -7 0 -16 -7 -19 -15 -4 -8
-16 -15 -29 -15 -12 0 -28 -7 -35 -15 -7 -8 -20 -15 -29 -15 -10 0 -26 -7 -37
-15 -10 -8 -31 -15 -45 -15 -15 0 -32 -7 -39 -15 -7 -8 -20 -15 -30 -15 -10 0
-23 -7 -30 -15 -7 -8 -20 -15 -30 -15 -10 0 -23 -7 -30 -15 -7 -8 -22 -15 -34
-15 -12 0 -31 -7 -42 -15 -10 -8 -29 -15 -40 -15 -12 0 -27 -7 -34 -15 -7 -8
-21 -15 -32 -15 -10 0 -21 -7 -24 -15 -4 -8 -16 -15 -29 -15 -12 0 -28 -7 -35
-15 -7 -8 -25 -15 -40 -15 -15 0 -33 -7 -40 -15 -7 -8 -23 -15 -35 -15 -13 0
-25 -7 -29 -15 -3 -8 -14 -15 -24 -15 -11 0 -25 -7 -32 -15 -7 -8 -23 -15 -36
-15 -14 0 -32 -4 -42 -10 -9 -5 -28 -14 -42 -20 -14 -5 -32 -14 -40 -19 -8 -5
-26 -13 -40 -19 -14 -6 -54 -24 -90 -40 -36 -16 -76 -33 -89 -37 -14 -4 -45
-18 -69 -31 -25 -13 -51 -24 -59 -24 -7 0 -16 -7 -19 -15 -4 -8 -16 -15 -28
-15 -12 0 -31 -7 -42 -15 -10 -8 -29 -15 -41 -15 -12 0 -28 -7 -37 -15 -8 -8
-21 -15 -29 -15 -8 0 -20 -7 -27 -15 -7 -8 -23 -15 -35 -15 -13 0 -25 -7 -29
-15 -3 -8 -18 -15 -33 -15 -15 0 -37 -7 -47 -15 -11 -8 -27 -15 -37 -15 -9 0
-22 -7 -29 -15 -7 -8 -23 -15 -35 -15 -13 0 -25 -7 -29 -15 -3 -8 -16 -15 -28
-15 -13 0 -32 -7 -42 -15 -11 -8 -30 -15 -42 -15 -12 0 -27 -7 -34 -15 -7 -8
-20 -15 -30 -15 -10 0 -23 -7 -30 -15 -7 -8 -20 -15 -30 -15 -10 0 -23 -7 -30
-15 -7 -8 -24 -15 -39 -15 -14 0 -35 -7 -45 -15 -11 -8 -27 -15 -37 -15 -9 0
-22 -7 -29 -15 -7 -8 -20 -15 -30 -15 -10 0 -23 -7 -30 -15 -7 -9 -15 -13 -18
-11 -3 3 -17 0 -31 -8 -58 -29 -157 -72 -188 -81 -13 -3 -23 -11 -23 -16 0 -5
-8 -9 -19 -9 -10 0 -24 -7 -31 -15 -7 -8 -20 -15 -29 -15 -10 0 -26 -7 -37
-15 -10 -8 -31 -15 -45 -15 -15 0 -32 -7 -39 -15 -7 -8 -20 -15 -30 -15 -10 0
-23 -7 -30 -15 -7 -8 -20 -15 -30 -15 -10 0 -23 -7 -30 -15 -7 -8 -25 -15 -40
-15 -15 0 -33 -7 -40 -15 -7 -8 -23 -15 -35 -15 -12 0 -28 -7 -35 -15 -7 -8
-20 -15 -30 -15 -10 0 -23 -7 -30 -15 -7 -8 -20 -15 -29 -15 -9 0 -25 -7 -35
-15 -11 -8 -32 -15 -47 -15 -14 0 -32 -7 -39 -15 -7 -8 -20 -15 -30 -15 -10 0
-23 -7 -30 -15 -7 -8 -20 -15 -30 -15 -10 0 -20 -7 -24 -15 -3 -9 -18 -15 -39
-15 -19 0 -40 -7 -47 -15 -7 -8 -20 -15 -30 -15 -10 0 -23 -7 -30 -15 -7 -8
-20 -15 -29 -15 -9 0 -25 -7 -35 -15 -10 -8 -22 -12 -26 -10 -4 3 -15 -4 -25
-15 -10 -11 -28 -20 -39 -20 -12 0 -30 -7 -40 -15 -11 -8 -28 -15 -37 -15 -10
0 -39 -11 -65 -25 -26 -14 -52 -25 -59 -25 -6 0 -24 -13 -40 -30 -16 -16 -36
-30 -45 -30 -18 0 -240 -220 -240 -238 0 -7 -11 -28 -25 -46 -14 -18 -25 -37
-25 -43 0 -6 -9 -22 -21 -37 -12 -15 -18 -33 -15 -44 4 -12 -1 -26 -14 -37
-15 -13 -19 -26 -15 -43 4 -15 -1 -32 -16 -50 -17 -22 -20 -35 -14 -77 4 -34
1 -64 -10 -94 -13 -38 -15 -210 -15 -1467 l0 -1424 5550 0 c5279 0 5550 1
5550 18 0 9 0 614 0 1343 0 1154 -2 1332 -15 1363 -11 25 -15 73 -15 171 0
108 -3 141 -16 160 -10 15 -14 34 -10 49 4 16 -1 32 -14 49 -11 14 -20 32 -20
41 0 9 -7 19 -15 22 -8 4 -15 16 -15 29 0 12 -7 28 -15 35 -8 7 -15 20 -15 30
0 9 -9 25 -21 36 -11 10 -26 32 -33 49 -15 34 -179 195 -199 195 -8 0 -22 9
-32 20 -10 12 -24 19 -31 16 -7 -3 -20 4 -30 15 -9 10 -25 19 -34 19 -10 0
-23 7 -30 15 -7 8 -18 15 -24 15 -6 0 -47 18 -91 40 -44 22 -92 40 -108 40
-15 0 -30 7 -33 15 -4 8 -17 15 -30 15 -14 0 -27 7 -30 15 -4 8 -14 15 -24 15
-10 0 -25 7 -34 15 -8 8 -23 15 -33 15 -11 0 -28 7 -39 15 -10 8 -31 15 -45
15 -15 0 -29 7 -33 15 -3 8 -17 15 -31 15 -14 0 -28 7 -31 15 -4 8 -12 15 -19
15 -7 0 -26 6 -42 14 -15 7 -46 21 -68 31 -22 9 -53 23 -68 31 -16 8 -37 14
-47 14 -10 0 -20 7 -24 15 -3 8 -12 15 -20 15 -8 0 -29 8 -48 17 -18 9 -45 22
-60 30 -14 7 -35 13 -46 13 -11 0 -25 7 -32 15 -7 8 -20 15 -30 15 -10 0 -23
7 -30 15 -7 8 -20 15 -30 15 -10 0 -23 7 -30 15 -7 8 -18 15 -25 15 -7 0 -26
7 -41 15 -16 8 -36 12 -45 10 -9 -3 -24 4 -34 15 -10 11 -26 20 -37 20 -10 0
-18 4 -18 10 0 5 -12 13 -27 16 -16 4 -30 10 -33 14 -6 8 -104 40 -124 40 -8
0 -19 6 -23 13 -9 15 -69 47 -88 47 -7 0 -18 7 -25 15 -7 8 -20 15 -29 15 -10
0 -44 14 -76 30 -32 17 -66 30 -76 30 -9 0 -22 7 -29 15 -7 8 -20 15 -30 15
-10 0 -23 7 -30 15 -7 8 -20 15 -30 15 -10 0 -23 7 -30 15 -7 8 -22 15 -34 15
-12 0 -31 7 -42 15 -10 8 -29 15 -40 15 -12 0 -27 7 -34 15 -7 8 -20 15 -30
15 -10 0 -20 7 -24 15 -3 8 -16 15 -29 15 -14 0 -30 7 -37 15 -7 8 -25 15 -40
15 -15 0 -33 7 -40 15 -7 8 -23 15 -37 15 -13 0 -26 7 -29 15 -4 8 -17 15 -30
15 -13 0 -24 4 -24 10 0 5 -12 13 -27 16 -16 4 -32 10 -38 14 -5 4 -35 18 -65
30 -64 26 -158 68 -180 81 -44 25 -105 49 -125 49 -12 0 -28 7 -35 15 -7 8
-20 15 -30 15 -10 0 -23 7 -30 15 -7 8 -20 15 -30 15 -10 0 -23 7 -30 15 -7 8
-22 15 -34 15 -12 0 -31 7 -42 15 -10 8 -29 15 -42 15 -12 0 -25 7 -28 15 -4
8 -17 15 -30 15 -14 0 -27 7 -30 15 -4 8 -16 15 -29 15 -12 0 -28 7 -35 15 -7
8 -22 15 -34 15 -11 0 -30 7 -40 15 -11 8 -30 15 -42 15 -12 0 -24 7 -28 15
-3 8 -16 15 -29 15 -14 0 -30 7 -37 15 -7 8 -19 15 -27 15 -8 0 -21 7 -29 15
-9 8 -24 15 -33 15 -10 0 -24 7 -31 15 -7 8 -21 15 -30 15 -16 0 -52 15 -100
42 -8 4 -22 11 -30 14 -8 3 -22 10 -30 15 -8 5 -22 12 -30 15 -8 3 -30 13 -48
21 -18 8 -36 12 -41 9 -5 -3 -20 3 -34 14 -14 11 -32 20 -41 20 -9 0 -16 4
-16 10 0 5 -12 13 -27 16 -16 4 -33 10 -38 15 -14 11 -97 39 -116 39 -9 0 -24
9 -34 20 -10 11 -21 17 -25 15 -4 -3 -13 2 -20 10 -7 8 -23 15 -35 15 -12 0
-28 7 -35 15 -7 8 -20 15 -29 15 -10 0 -26 7 -37 15 -10 8 -29 15 -40 15 -12
0 -27 7 -34 15 -7 8 -23 15 -35 15 -12 0 -28 7 -35 15 -7 8 -27 15 -44 15 -17
0 -40 7 -50 15 -12 9 -43 15 -80 15 -38 1 -68 6 -80 15 -14 10 -45 15 -101 15
-56 0 -87 -5 -101 -15z"/>
</g>
</svg>
