<?xml version="1.0" standalone="no"?>
<!DOCTYPE svg PUBLIC "-//W3C//DTD SVG 20010904//EN"
 "http://www.w3.org/TR/2001/REC-SVG-20010904/DTD/svg10.dtd">
<svg version="1.0" xmlns="http://www.w3.org/2000/svg"
 width="760.000000pt" height="761.000000pt" viewBox="0 0 760.000000 761.000000"
 preserveAspectRatio="xMidYMid meet">

<g transform="translate(0.000000,761.000000) scale(0.100000,-0.100000)"
fill="#000000" stroke="none">
<path d="M2063 7289 c-75 -13 -207 -63 -283 -109 -204 -121 -356 -324 -410
-550 -20 -84 -20 -107 -20 -2812 0 -2311 2 -2738 14 -2800 63 -328 314 -596
641 -684 67 -18 140 -19 1960 -19 2076 0 1920 -4 2075 57 208 82 405 279 489
488 65 164 61 28 61 2207 0 1324 -4 1999 -11 2043 -14 91 -59 216 -110 307
-39 71 -112 147 -839 876 -437 439 -822 818 -856 843 -77 55 -182 107 -276
136 l-73 23 -1155 1 c-635 1 -1178 -2 -1207 -7z m3015 -1671 c397 -394 722
-719 722 -722 0 -10 -1263 -6 -1323 4 -32 5 -78 19 -102 31 -58 29 -129 101
-157 158 l-23 46 -3 679 -2 680 82 -79 c46 -44 408 -403 806 -797z m-1694
-593 c179 -46 228 -77 256 -161 12 -35 7 -253 -6 -309 -4 -15 15 -40 71 -97
l76 -76 142 11 c167 12 205 7 253 -35 46 -40 47 -44 84 -186 50 -193 33 -224
-180 -332 l-138 -71 -7 -41 c-4 -23 -16 -67 -26 -97 l-19 -55 79 -120 c44 -67
85 -134 90 -149 30 -80 1 -145 -111 -254 -91 -88 -117 -103 -179 -103 -53 0
-83 14 -217 102 l-113 74 -52 -17 c-29 -10 -73 -21 -98 -25 l-45 -6 -60 -127
c-32 -69 -72 -141 -89 -160 -59 -68 -124 -76 -268 -35 -112 32 -137 45 -171
84 -44 53 -50 91 -37 253 l11 145 -73 71 c-82 80 -72 78 -272 62 -120 -10
-154 -2 -206 47 -35 33 -42 49 -69 152 -32 124 -36 163 -19 207 19 50 62 84
192 149 139 70 131 61 166 188 l22 79 -80 121 c-44 67 -85 134 -90 149 -29 76
2 143 110 245 96 90 130 111 184 112 47 0 81 -17 222 -111 l104 -69 80 25 c44
14 89 25 99 25 15 0 35 33 89 144 71 147 96 177 159 196 41 13 68 11 136 -5z
m1365 -1708 c31 -21 51 -52 112 -171 50 -98 79 -146 90 -146 9 0 53 -10 97
-23 l81 -24 137 89 c118 76 143 88 180 88 23 0 55 -5 71 -11 40 -15 202 -176
224 -224 37 -79 23 -121 -93 -285 l-75 -105 22 -65 c12 -36 25 -81 29 -101 5
-29 13 -40 39 -50 17 -7 82 -39 143 -72 174 -91 191 -133 134 -341 -30 -114
-54 -152 -112 -182 -31 -16 -128 -18 -266 -5 l-92 9 -74 -75 -74 -75 11 -144
c12 -160 5 -201 -39 -254 -34 -40 -60 -53 -175 -84 -114 -31 -150 -32 -205 -7
-54 24 -80 61 -147 206 l-56 119 -58 12 c-32 6 -76 19 -97 28 l-39 16 -134
-87 c-117 -75 -142 -87 -187 -91 -67 -5 -84 4 -191 102 -159 145 -162 187 -31
389 l86 134 -14 40 c-8 22 -19 65 -26 96 l-11 56 -145 77 c-95 51 -152 87
-166 107 -33 47 -35 117 -4 233 34 129 51 160 104 191 43 25 45 26 190 19 81
-4 154 -8 163 -9 9 -1 51 31 92 71 l76 73 -11 143 c-13 166 -8 204 32 250 35
39 56 49 192 87 118 33 163 32 217 -4z"/>
<path d="M3060 4161 c-257 -79 -296 -407 -61 -528 53 -28 74 -33 130 -33 127
0 239 82 272 198 16 59 7 167 -19 218 -57 111 -208 179 -322 145z"/>
<path d="M4729 2466 c-207 -74 -264 -324 -109 -475 80 -78 226 -104 320 -56
174 87 214 329 77 463 -74 73 -195 101 -288 68z"/>
</g>
</svg>
