<?xml version="1.0" standalone="no"?>
<!DOCTYPE svg PUBLIC "-//W3C//DTD SVG 20010904//EN"
 "http://www.w3.org/TR/2001/REC-SVG-20010904/DTD/svg10.dtd">
<svg version="1.0" xmlns="http://www.w3.org/2000/svg"
 width="1000.000000pt" height="1000.000000pt" viewBox="0 0 1000.000000 1000.000000"
 preserveAspectRatio="xMidYMid meet">

<g transform="translate(0.000000,1000.000000) scale(0.100000,-0.100000)"
fill="#000000" stroke="none">
<path d="M2575 9705 c-148 -28 -314 -98 -450 -190 -78 -53 -240 -213 -297
-295 -78 -111 -137 -240 -181 -395 l-22 -80 0 -3760 0 -3760 23 -85 c49 -177
108 -304 201 -428 170 -224 414 -384 691 -452 120 -29 298 -31 2705 -27 2626
4 2458 0 2638 51 305 87 586 327 727 621 57 120 76 177 101 309 18 98 19 180
19 2624 0 2272 -2 2532 -16 2610 -38 203 -102 360 -214 522 -76 109 -2423
2453 -2535 2532 -129 91 -188 118 -415 195 -52 17 -124 18 -1480 20 -1151 1
-1438 -1 -1495 -12z m2308 -1752 c4 -880 4 -900 26 -998 79 -363 274 -658 557
-846 165 -109 259 -149 509 -212 25 -6 395 -12 960 -16 l920 -6 3 -2230 c3
-2295 3 -2294 -35 -2369 -23 -44 -93 -115 -138 -139 l-40 -22 -2475 0 -2475 0
-47 28 c-63 37 -113 98 -138 164 -20 54 -20 68 -18 3686 l3 3632 28 57 c34 69
93 121 169 148 51 19 93 19 1120 20 l1067 0 4 -897z m1749 -334 c466 -468 846
-855 842 -860 -8 -13 -1287 -11 -1344 2 -116 27 -237 111 -301 210 -69 108
-69 108 -69 841 0 492 3 658 12 658 6 0 393 -383 860 -851z"/>
<path d="M3601 5773 c-12 -10 -73 -117 -135 -238 l-114 -220 -252 -41 c-225
-36 -255 -43 -272 -63 -10 -13 -18 -33 -18 -44 0 -14 64 -85 184 -206 l184
-186 -40 -252 c-38 -238 -39 -254 -24 -278 33 -51 51 -46 294 78 l227 115 230
-115 c253 -127 274 -132 299 -73 10 26 7 65 -27 276 l-39 246 181 182 c154
155 181 187 181 212 0 61 -6 63 -281 108 l-254 41 -112 220 c-111 216 -137
255 -173 255 -10 0 -27 -8 -39 -17z"/>
<path d="M5110 4369 c-84 -7 -172 -40 -236 -89 -52 -39 -99 -97 -725 -900
-157 -201 -367 -469 -466 -596 -210 -268 -224 -289 -255 -369 -19 -50 -23 -79
-23 -170 0 -97 4 -119 28 -182 66 -168 195 -282 372 -328 52 -13 224 -15 1350
-15 847 0 1312 4 1354 11 196 31 367 186 421 382 24 86 25 132 5 228 -26 124
-41 150 -229 389 -144 184 -632 809 -885 1135 -245 314 -311 391 -374 431 -93
61 -206 85 -337 73z"/>
</g>
</svg>
